<svg width="906" height="906" viewBox="0 0 906 906" fill="none" xmlns="http://www.w3.org/2000/svg">
<path d="M750.056 250.657L479.813 811.212L129.48 296.897L750.056 250.657Z" stroke="url(#paint0_linear_146_13)" stroke-opacity="0.38" stroke-width="29.2206"/>
<path d="M366.853 691.516L337.057 671.298L366.938 652.703L397.111 670.685L366.853 691.516Z" stroke="url(#paint1_linear_146_13)" stroke-width="11"/>
<g clip-path="url(#clip0_146_13)">
<path fill-rule="evenodd" clip-rule="evenodd" d="M273.948 512.808H634.789C612.496 591.455 540.115 649.138 454.369 649.138C368.622 649.138 296.241 591.455 273.948 512.808ZM267.473 476.792H641.265L641.263 476.798C640.863 481.762 640.271 486.712 639.479 491.629C638.673 496.625 637.663 501.589 636.457 506.505L636.435 506.597H272.302L272.281 506.505C271.074 501.589 270.064 496.625 269.259 491.629C268.466 486.712 267.874 481.762 267.474 476.798L267.473 476.792ZM268.684 435.468H640.053C641.25 444.023 641.869 452.759 641.869 461.638C641.869 463.656 641.836 465.666 641.774 467.664H266.963C266.901 465.666 266.869 463.656 266.869 461.638C266.869 452.759 267.487 444.023 268.684 435.468ZM277.774 398.522H630.963L630.972 398.544C632.603 403.111 634.059 407.741 635.332 412.422C636.578 417.007 637.646 421.64 638.539 426.306L638.545 426.34H270.193C272.015 416.792 274.561 407.501 277.774 398.522ZM298.539 357.383H610.198C616.048 366.106 621.185 375.347 625.525 385.015H283.212L283.266 384.894C285.404 380.145 287.737 375.484 290.263 370.929C292.822 366.312 295.577 361.806 298.515 357.42L298.539 357.383ZM335.497 316.675H573.241L573.282 316.708C577.7 320.341 581.955 324.172 586.027 328.189C590.132 332.239 594.05 336.478 597.769 340.886L597.829 340.959H310.908C318.343 332.131 326.577 323.998 335.497 316.675ZM361.425 298.79C388.83 283.106 420.56 274.138 454.369 274.138C488.177 274.138 519.907 283.106 547.312 298.79H361.425Z" fill="url(#paint2_linear_146_13)"/>
</g>
<path d="M726.032 219.478L518.564 806.172L114.207 333.152L726.032 219.478Z" stroke="url(#paint3_linear_146_13)" stroke-width="29.2206"/>
<line x1="831.369" y1="146.138" x2="831.369" y2="462.138" stroke="#EEEEEE"/>
<line x1="809.369" y1="215.138" x2="809.369" y2="531.138" stroke="#EEEEEE"/>
<circle cx="809.369" cy="535.638" r="6.5" fill="#EEEEEE"/>
<circle cx="831.369" cy="140.638" r="6.5" fill="url(#paint4_linear_146_13)"/>
<circle cx="809.369" cy="210.5" r="6.5" fill="url(#paint5_linear_146_13)"/>
<circle cx="831.369" cy="464.638" r="6.5" fill="#EEEEEE"/>
<path d="M80.2176 248.904L36.9579 219.55L80.302 192.577L124.111 218.685L80.2176 248.904Z" stroke="url(#paint6_linear_146_13)" stroke-width="11"/>
<line x1="156.065" y1="682.083" x2="216.169" y2="743.602" stroke="#EEEEEE"/>
<line x1="215.458" y1="743.597" x2="276.273" y2="682.782" stroke="#EEEEEE"/>
<line x1="156.065" y1="446.083" x2="216.169" y2="507.602" stroke="#EEEEEE"/>
<line x1="215.458" y1="507.597" x2="276.273" y2="446.782" stroke="#EEEEEE"/>
<line x1="156.065" y1="564.083" x2="216.169" y2="625.602" stroke="#EEEEEE"/>
<line x1="215.458" y1="625.597" x2="276.273" y2="564.782" stroke="#EEEEEE"/>
<line x1="156.065" y1="328.083" x2="216.169" y2="389.602" stroke="#EEEEEE"/>
<line x1="215.458" y1="389.597" x2="276.273" y2="328.782" stroke="#EEEEEE"/>
<line x1="156.065" y1="626.083" x2="216.169" y2="687.602" stroke="#EEEEEE"/>
<line x1="215.458" y1="687.597" x2="276.273" y2="626.782" stroke="#EEEEEE"/>
<line x1="156.065" y1="390.083" x2="216.169" y2="451.602" stroke="#EEEEEE"/>
<line x1="215.458" y1="451.597" x2="276.273" y2="390.782" stroke="#EEEEEE"/>
<line x1="156.065" y1="508.083" x2="216.169" y2="569.602" stroke="#EEEEEE"/>
<line x1="215.458" y1="569.597" x2="276.273" y2="508.782" stroke="#EEEEEE"/>
<line x1="156.065" y1="272.083" x2="216.169" y2="333.602" stroke="#EEEEEE"/>
<line x1="215.458" y1="333.597" x2="276.273" y2="272.782" stroke="#EEEEEE"/>
<line x1="156.065" y1="650.897" x2="216.169" y2="712.415" stroke="#EEEEEE"/>
<line x1="215.458" y1="712.411" x2="276.273" y2="651.595" stroke="#EEEEEE"/>
<line x1="156.065" y1="414.897" x2="216.169" y2="476.415" stroke="#EEEEEE"/>
<line x1="215.458" y1="476.411" x2="276.273" y2="415.595" stroke="#EEEEEE"/>
<line x1="156.065" y1="532.897" x2="216.169" y2="594.415" stroke="#EEEEEE"/>
<line x1="215.458" y1="594.411" x2="276.273" y2="533.595" stroke="#EEEEEE"/>
<line x1="156.065" y1="296.897" x2="216.169" y2="358.415" stroke="#EEEEEE"/>
<line x1="215.458" y1="358.411" x2="276.273" y2="297.595" stroke="#EEEEEE"/>
<line x1="156.065" y1="594.897" x2="216.169" y2="656.415" stroke="#EEEEEE"/>
<line x1="215.458" y1="656.411" x2="276.273" y2="595.595" stroke="#EEEEEE"/>
<line x1="156.065" y1="358.897" x2="216.169" y2="420.415" stroke="#EEEEEE"/>
<line x1="215.458" y1="420.411" x2="276.273" y2="359.595" stroke="#EEEEEE"/>
<line x1="156.065" y1="476.897" x2="216.169" y2="538.415" stroke="#EEEEEE"/>
<line x1="215.458" y1="538.411" x2="276.273" y2="477.595" stroke="#EEEEEE"/>
<line x1="156.065" y1="240.897" x2="216.169" y2="302.415" stroke="#EEEEEE"/>
<line x1="215.458" y1="302.411" x2="276.273" y2="241.595" stroke="#EEEEEE"/>
<line x1="276.562" y1="242.005" x2="216.458" y2="180.487" stroke="#EEEEEE"/>
<line x1="217.169" y1="180.491" x2="156.354" y2="241.307" stroke="#EEEEEE"/>
<defs>
<linearGradient id="paint0_linear_146_13" x1="434.716" y1="205.449" x2="483.73" y2="863.261" gradientUnits="userSpaceOnUse">
<stop offset="0.0493181" stop-color="#75358F"/>
<stop offset="0.489469" stop-color="#D82280"/>
<stop offset="1" stop-color="#FFA32B"/>
</linearGradient>
<linearGradient id="paint1_linear_146_13" x1="347.236" y1="650.83" x2="387.026" y2="690.62" gradientUnits="userSpaceOnUse">
<stop offset="0.0493181" stop-color="#75358F"/>
<stop offset="0.489469" stop-color="#D82280"/>
<stop offset="1" stop-color="#FFA32B"/>
</linearGradient>
<linearGradient id="paint2_linear_146_13" x1="454.369" y1="274.138" x2="454.369" y2="649.138" gradientUnits="userSpaceOnUse">
<stop stop-color="#5D2475"/>
<stop offset="0.05" stop-color="#5D2475"/>
<stop offset="0.49" stop-color="#D82280"/>
<stop offset="1" stop-color="#FFA32B"/>
</linearGradient>
<linearGradient id="paint3_linear_146_13" x1="407.642" y1="208.947" x2="528.137" y2="857.483" gradientUnits="userSpaceOnUse">
<stop offset="0.0493181" stop-color="#75358F"/>
<stop offset="0.489469" stop-color="#D82280"/>
<stop offset="1" stop-color="#FFA32B"/>
</linearGradient>
<linearGradient id="paint4_linear_146_13" x1="831.369" y1="120" x2="831.369" y2="147.138" gradientUnits="userSpaceOnUse">
<stop offset="0.0493181" stop-color="#75358F"/>
<stop offset="0.489469" stop-color="#D82280"/>
<stop offset="1" stop-color="#FFA32B"/>
</linearGradient>
<linearGradient id="paint5_linear_146_13" x1="809.369" y1="189.862" x2="809.369" y2="217" gradientUnits="userSpaceOnUse">
<stop offset="0.0493181" stop-color="#75358F"/>
<stop offset="0.489469" stop-color="#D82280"/>
<stop offset="1" stop-color="#FFA32B"/>
</linearGradient>
<linearGradient id="paint6_linear_146_13" x1="53.9752" y1="192.244" x2="107.189" y2="245.458" gradientUnits="userSpaceOnUse">
<stop offset="0.0493181" stop-color="#75358F"/>
<stop offset="0.489469" stop-color="#D82280"/>
<stop offset="1" stop-color="#FFA32B"/>
</linearGradient>
<clipPath id="clip0_146_13">
<rect width="375" height="375" fill="white" transform="translate(266.869 274.138)"/>
</clipPath>
</defs>
</svg>
