<svg width="257" height="107" viewBox="0 0 257 107" fill="none" xmlns="http://www.w3.org/2000/svg">
<circle cx="40" cy="53" r="40" fill="url(#paint0_linear_109_25)"/>
<path d="M130.52 34.64C130.805 35.7813 130.948 37.208 130.948 38.92C130.948 40.5607 130.805 41.9873 130.52 43.2C130.805 44.3413 130.948 45.768 130.948 47.48C130.948 49.1207 130.805 50.5473 130.52 51.76C130.805 52.9013 130.948 54.328 130.948 56.04C130.948 57.6807 130.805 59.1073 130.52 60.32C130.805 61.4613 130.948 62.888 130.948 64.6C130.948 66.2407 130.805 67.6673 130.52 68.88C130.805 70.0213 130.948 71.448 130.948 73.16C130.948 74.8007 130.805 76.2273 130.52 77.44C130.805 78.5813 130.948 80.008 130.948 81.72C130.948 83.3607 130.805 84.7873 130.52 86H121.96C121.675 84.7873 121.532 83.3607 121.532 81.72C121.532 80.008 121.675 78.5813 121.96 77.44H116.61C116.325 76.2273 116.182 74.8007 116.182 73.16C116.182 71.448 116.325 70.0213 116.61 68.88H113.4C113.115 67.6673 112.972 66.2407 112.972 64.6C112.972 62.888 113.115 61.4613 113.4 60.32H109.12C108.835 59.1073 108.692 57.6807 108.692 56.04C108.692 54.328 108.835 52.9013 109.12 51.76H104.84C105.125 52.9013 105.268 54.328 105.268 56.04C105.268 57.6807 105.125 59.1073 104.84 60.32C105.125 61.4613 105.268 62.888 105.268 64.6C105.268 66.2407 105.125 67.6673 104.84 68.88C105.125 70.0213 105.268 71.448 105.268 73.16C105.268 74.8007 105.125 76.2273 104.84 77.44C105.125 78.5813 105.268 80.008 105.268 81.72C105.268 83.3607 105.125 84.7873 104.84 86H96.28C95.9947 84.7873 95.852 83.3607 95.852 81.72C95.852 80.008 95.9947 78.5813 96.28 77.44C95.9947 76.2273 95.852 74.8007 95.852 73.16C95.852 71.448 95.9947 70.0213 96.28 68.88C95.9947 67.6673 95.852 66.2407 95.852 64.6C95.852 62.888 95.9947 61.4613 96.28 60.32C95.9947 59.1073 95.852 57.6807 95.852 56.04C95.852 54.328 95.9947 52.9013 96.28 51.76C95.9947 50.5473 95.852 49.1207 95.852 47.48C95.852 45.768 95.9947 44.3413 96.28 43.2C95.9947 41.9873 95.852 40.5607 95.852 38.92C95.852 37.208 95.9947 35.7813 96.28 34.64C95.9947 33.4273 95.852 32.0007 95.852 30.36C95.852 28.648 95.9947 27.2213 96.28 26.08H106.98C107.265 27.2213 107.408 28.648 107.408 30.36C107.408 32.0007 107.265 33.4273 106.98 34.64H110.19C110.475 35.7813 110.618 37.208 110.618 38.92C110.618 40.5607 110.475 41.9873 110.19 43.2H113.4C113.685 44.3413 113.828 45.768 113.828 47.48C113.828 49.1207 113.685 50.5473 113.4 51.76H117.68C117.965 52.9013 118.108 54.328 118.108 56.04C118.108 57.6807 117.965 59.1073 117.68 60.32H121.96C121.675 59.1073 121.532 57.6807 121.532 56.04C121.532 54.328 121.675 52.9013 121.96 51.76C121.675 50.5473 121.532 49.1207 121.532 47.48C121.532 45.768 121.675 44.3413 121.96 43.2C121.675 41.9873 121.532 40.5607 121.532 38.92C121.532 37.208 121.675 35.7813 121.96 34.64C121.675 33.4273 121.532 32.0007 121.532 30.36C121.532 28.648 121.675 27.2213 121.96 26.08H130.52C130.805 27.2213 130.948 28.648 130.948 30.36C130.948 32.0007 130.805 33.4273 130.52 34.64ZM173.79 30.36C173.79 32.0007 173.647 33.4273 173.362 34.64C173.647 35.7813 173.79 37.208 173.79 38.92C173.79 40.5607 173.647 41.9873 173.362 43.2H169.082C169.367 44.3413 169.51 45.768 169.51 47.48C169.51 49.1207 169.367 50.5473 169.082 51.76H164.802C165.087 52.9013 165.23 54.328 165.23 56.04C165.23 57.6807 165.087 59.1073 164.802 60.32H160.522C160.807 61.4613 160.95 62.888 160.95 64.6C160.95 66.2407 160.807 67.6673 160.522 68.88C160.807 70.0213 160.95 71.448 160.95 73.16C160.95 74.8007 160.807 76.2273 160.522 77.44C160.807 78.5813 160.95 80.008 160.95 81.72C160.95 83.3607 160.807 84.7873 160.522 86H151.962C151.676 84.7873 151.534 83.3607 151.534 81.72C151.534 80.008 151.676 78.5813 151.962 77.44C151.676 76.2273 151.534 74.8007 151.534 73.16C151.534 71.448 151.676 70.0213 151.962 68.88C151.676 67.6673 151.534 66.2407 151.534 64.6C151.534 62.888 151.676 61.4613 151.962 60.32H147.682C147.396 59.1073 147.254 57.6807 147.254 56.04C147.254 54.328 147.396 52.9013 147.682 51.76H143.402C143.116 50.5473 142.974 49.1207 142.974 47.48C142.974 45.768 143.116 44.3413 143.402 43.2H139.122C138.836 41.9873 138.694 40.5607 138.694 38.92C138.694 37.208 138.836 35.7813 139.122 34.64C138.836 33.4273 138.694 32.0007 138.694 30.36C138.694 28.648 138.836 27.2213 139.122 26.08H147.682C147.967 27.2213 148.11 28.648 148.11 30.36C148.11 32.0007 147.967 33.4273 147.682 34.64C147.967 35.7813 148.11 37.208 148.11 38.92C148.11 40.5607 147.967 41.9873 147.682 43.2H151.962C152.247 44.3413 152.39 45.768 152.39 47.48C152.39 49.1207 152.247 50.5473 151.962 51.76H160.522C160.236 50.5473 160.094 49.1207 160.094 47.48C160.094 45.768 160.236 44.3413 160.522 43.2H164.802C164.516 41.9873 164.374 40.5607 164.374 38.92C164.374 37.208 164.516 35.7813 164.802 34.64C164.516 33.4273 164.374 32.0007 164.374 30.36C164.374 28.648 164.516 27.2213 164.802 26.08H173.362C173.647 27.2213 173.79 28.648 173.79 30.36Z" fill="white"/>
<path d="M194 48.36C193.06 48.36 192.22 48.27 191.48 48.09C190.74 47.91 190.07 47.67 189.47 47.37C188.87 47.05 188.33 46.67 187.85 46.23C187.39 45.79 186.97 45.31 186.59 44.79L187.91 43.71C188.69 44.71 189.55 45.48 190.49 46.02C191.43 46.54 192.62 46.8 194.06 46.8C195.74 46.8 197.03 46.43 197.93 45.69C198.83 44.93 199.28 43.84 199.28 42.42C199.28 41.12 198.9 40.16 198.14 39.54C197.4 38.92 196.34 38.5 194.96 38.28L192.62 37.89C191.58 37.71 190.71 37.44 190.01 37.08C189.33 36.72 188.78 36.3 188.36 35.82C187.94 35.32 187.64 34.77 187.46 34.17C187.3 33.57 187.22 32.95 187.22 32.31C187.22 30.43 187.83 29.03 189.05 28.11C190.29 27.17 191.95 26.7 194.03 26.7C195.73 26.7 197.12 26.98 198.2 27.54C199.3 28.08 200.18 28.83 200.84 29.79L199.58 30.9C198.98 30.06 198.24 29.41 197.36 28.95C196.5 28.49 195.37 28.26 193.97 28.26C192.41 28.26 191.19 28.6 190.31 29.28C189.45 29.94 189.02 30.93 189.02 32.25C189.02 33.47 189.38 34.4 190.1 35.04C190.82 35.66 191.89 36.08 193.31 36.3L195.62 36.69C196.68 36.87 197.56 37.15 198.26 37.53C198.96 37.89 199.52 38.32 199.94 38.82C200.36 39.32 200.65 39.87 200.81 40.47C200.99 41.07 201.08 41.7 201.08 42.36C201.08 44.28 200.46 45.76 199.22 46.8C197.98 47.84 196.24 48.36 194 48.36ZM210.998 37.2L207.608 41.1V48H205.808V27.06H207.608V38.73H207.668L210.968 34.83L217.658 27.06H219.818L212.228 35.88L219.968 48H217.868L210.998 37.2ZM229.077 48V39.54L221.607 27.06H223.677L229.917 37.74H230.037L236.337 27.06H238.347L230.877 39.54V48H229.077ZM198.59 77.16H189.41V87H187.61V66.06H189.41V75.6H198.59V66.06H200.39V87H198.59V77.16ZM205.598 87V85.56H211.088V67.5H205.598V66.06H218.378V67.5H212.888V85.56H218.378V87H205.598ZM234.837 84.09H234.717C234.537 84.53 234.317 84.95 234.057 85.35C233.797 85.73 233.477 86.07 233.097 86.37C232.717 86.67 232.247 86.91 231.687 87.09C231.147 87.27 230.507 87.36 229.767 87.36C227.487 87.36 225.767 86.47 224.607 84.69C223.447 82.91 222.867 80.22 222.867 76.62C222.867 72.92 223.477 70.18 224.697 68.4C225.937 66.6 227.777 65.7 230.217 65.7C231.077 65.7 231.847 65.82 232.527 66.06C233.207 66.3 233.797 66.62 234.297 67.02C234.797 67.42 235.217 67.89 235.557 68.43C235.917 68.97 236.207 69.54 236.427 70.14L234.867 70.83C234.487 69.81 233.937 68.96 233.217 68.28C232.517 67.6 231.537 67.26 230.277 67.26C228.417 67.26 227.037 67.95 226.137 69.33C225.237 70.69 224.787 72.62 224.787 75.12V77.85C224.787 80.33 225.207 82.28 226.047 83.7C226.907 85.12 228.267 85.83 230.127 85.83C230.867 85.83 231.527 85.71 232.107 85.47C232.687 85.23 233.177 84.89 233.577 84.45C233.977 84.01 234.287 83.5 234.507 82.92C234.727 82.32 234.837 81.66 234.837 80.94V78.45H230.067V77.01H236.517V87H234.837V84.09ZM252.555 77.16H243.375V87H241.575V66.06H243.375V75.6H252.555V66.06H254.355V87H252.555V77.16Z" fill="white"/>
<defs>
<linearGradient id="paint0_linear_109_25" x1="40" y1="13" x2="40" y2="93" gradientUnits="userSpaceOnUse">
<stop offset="0.0493181" stop-color="#5D2475"/>
<stop offset="0.489469" stop-color="#D82280"/>
<stop offset="1" stop-color="#FFA32B"/>
</linearGradient>
</defs>
</svg>
